<svg xmlns="http://www.w3.org/2000/svg" width="500" height="500" style="width:100%;height:100%;transform:translate3d(0,0,0);content-visibility:visible" viewBox="0 0 500 500"><defs><clipPath id="k"><path d="M0 0h500v500H0z"/></clipPath><clipPath id="p"><path d="M0 0h500v500H0z"/></clipPath><clipPath id="s"><path d="M0 0h500v500H0z"/></clipPath><clipPath id="n"><path d="M0 0h500v500H0z"/></clipPath><clipPath id="i"><path d="M0 0h500v500H0z"/></clipPath><clipPath id="l"><path d="M0 0h500v500H0z"/></clipPath><clipPath id="j"><path d="M0 0h500v500H0z"/></clipPath><mask id="t"><path fill="#fff" d="M0 0h500v500H0z"/><path/></mask><mask id="r" mask-type="alpha"><g filter="url(#a)"><path fill="#fff" d="M0 0h500v500H0z" opacity="0"/><use xmlns:ns1="http://www.w3.org/1999/xlink" ns1:href="#b"/></g></mask><mask id="q" mask-type="alpha"><g filter="url(#c)"><path fill="#fff" d="M0 0h500v500H0z" opacity="0"/><use xmlns:ns2="http://www.w3.org/1999/xlink" ns2:href="#d"/></g></mask><mask id="o" mask-type="alpha"><g filter="url(#e)"><path fill="#fff" d="M0 0h500v500H0z" opacity="0"/><use xmlns:ns3="http://www.w3.org/1999/xlink" ns3:href="#f"/></g></mask><mask id="m" mask-type="alpha"><g filter="url(#g)"><path fill="#fff" d="M0 0h500v500H0z" opacity="0"/><use xmlns:ns4="http://www.w3.org/1999/xlink" ns4:href="#h"/></g></mask><filter id="a" width="100%" height="100%" x="0%" y="0%" filterUnits="objectBoundingBox"><feComponentTransfer in="SourceGraphic"><feFuncA tableValues="1.0 0.0" type="table"/></feComponentTransfer></filter><filter id="c" width="100%" height="100%" x="0%" y="0%" filterUnits="objectBoundingBox"><feComponentTransfer in="SourceGraphic"><feFuncA tableValues="1.0 0.0" type="table"/></feComponentTransfer></filter><filter id="e" width="100%" height="100%" x="0%" y="0%" filterUnits="objectBoundingBox"><feComponentTransfer in="SourceGraphic"><feFuncA tableValues="1.0 0.0" type="table"/></feComponentTransfer></filter><filter id="g" width="100%" height="100%" x="0%" y="0%" filterUnits="objectBoundingBox"><feComponentTransfer in="SourceGraphic"><feFuncA tableValues="1.0 0.0" type="table"/></feComponentTransfer></filter><g id="d" fill-opacity="0" stroke-linecap="round" stroke-linejoin="round" class="primary design" style="display:none"><path class="primary"/><path class="primary"/></g><g id="b" class="primary design" style="display:none"><path fill-opacity="0" stroke-linecap="round" stroke-linejoin="round" class="primary"/></g><g id="f" fill-opacity="0" stroke-linecap="round" stroke-linejoin="round" clip-path="url(#i)" style="display:none"><g class="primary design" style="display:none"><path/><path/></g><g class="primary design" style="display:none"><path/><path/></g><path class="primary design" style="display:none"/></g><g id="h" fill-opacity="0" stroke-linecap="round" stroke-linejoin="round" clip-path="url(#j)" style="display:none"><g class="primary design" style="display:none"><path/><path/></g><g class="primary design" style="display:none"><path/><path/></g></g></defs><g clip-path="url(#k)"><g clip-path="url(#l)" style="display:none"><g class="primary design" style="display:none"><path fill="none" class="primary"/></g><g class="primary design" mask="url(#m)" style="display:none"><path class="primary"/><path class="primary"/></g><g class="primary design" style="display:none"><path class="primary"/><path class="primary"/></g><g class="primary design" style="display:none"><path class="primary"/><path class="primary"/></g></g><g clip-path="url(#n)" style="display:block"><g class="primary design" mask="url(#o)" style="display:none"><path class="primary"/></g><g fill="#121331" class="primary design" style="display:block"><path d="M416.638 171.68 286.658 41.701l-.207 130.23 130.187-.25z" class="primary"/><path d="M270.828 203.175c-8.54 0-15.622-7.082-15.622-15.622V41.743H124.393c-22.705 0-41.035 18.33-41.035 41.035v334.321c0 22.705 18.33 41.244 41.035 41.244h251.21c22.705 0 41.035-18.54 41.035-41.244V203.175h-145.81zm46.034 133.52c-4.166 3.958-9.373 6.041-14.789 6.041s-10.623-2.083-14.79-6.04l-16.455-16.665v55.408c0 11.665-9.373 20.83-20.83 20.83-11.456 0-20.83-9.165-20.83-20.83v-55.408l-16.456 16.664c-8.123 8.124-21.455 8.124-29.578 0-8.124-8.123-8.124-21.455 0-29.578l52.075-52.075c8.123-8.124 21.455-8.124 29.578 0l52.075 52.075c8.124 8.123 8.124 21.455 0 29.578z" class="primary"/></g><g class="primary design" style="display:none"><path class="primary"/><path class="primary"/></g></g><g clip-path="url(#p)" style="display:none"><g mask="url(#q)" style="display:none"><g mask="url(#r)" style="display:none"><g class="primary design" clip-path="url(#s)" mask="url(#t)"><path class="primary"/><path fill="none" class="primary"/></g></g></g><g class="primary design" style="display:none"><path class="primary"/><path class="primary"/></g></g></g></svg>